<svg xmlns="http://www.w3.org/2000/svg" xmlns:xlink="http://www.w3.org/1999/xlink" width="219" zoomAndPan="magnify" viewBox="0 0 164.25 89.249998" height="119" preserveAspectRatio="xMidYMid meet" version="1.0"><defs><clipPath id="c3e94c8826"><path d="M 0.925781 0.28125 L 23.601562 0.28125 L 23.601562 16.4375 L 0.925781 16.4375 Z M 0.925781 0.28125 " clip-rule="nonzero"/></clipPath><clipPath id="90d7ebc1fe"><path d="M 0.929688 0.28125 L 23.238281 0.28125 L 23.238281 16.433594 L 0.929688 16.433594 Z M 0.929688 0.28125 " clip-rule="nonzero"/></clipPath><clipPath id="2cb0734f90"><path d="M 22.855469 0.28125 L 45.53125 0.28125 L 45.53125 16.4375 L 22.855469 16.4375 Z M 22.855469 0.28125 " clip-rule="nonzero"/></clipPath><clipPath id="b36c610ab4"><path d="M 22.859375 0.28125 L 45.167969 0.28125 L 45.167969 16.433594 L 22.859375 16.433594 Z M 22.859375 0.28125 " clip-rule="nonzero"/></clipPath><clipPath id="edce8c4b67"><path d="M 44.785156 0.28125 L 67.460938 0.28125 L 67.460938 16.4375 L 44.785156 16.4375 Z M 44.785156 0.28125 " clip-rule="nonzero"/></clipPath><clipPath id="ddac39fbbc"><path d="M 44.789062 0.28125 L 67.097656 0.28125 L 67.097656 16.433594 L 44.789062 16.433594 Z M 44.789062 0.28125 " clip-rule="nonzero"/></clipPath><clipPath id="7139cd136f"><path d="M 0.925781 72.351562 L 23.601562 72.351562 L 23.601562 88.507812 L 0.925781 88.507812 Z M 0.925781 72.351562 " clip-rule="nonzero"/></clipPath><clipPath id="de52b65094"><path d="M 0.929688 72.351562 L 23.238281 72.351562 L 23.238281 88.503906 L 0.929688 88.503906 Z M 0.929688 72.351562 " clip-rule="nonzero"/></clipPath><clipPath id="642d64fdb9"><path d="M 22.855469 72.351562 L 45.53125 72.351562 L 45.53125 88.507812 L 22.855469 88.507812 Z M 22.855469 72.351562 " clip-rule="nonzero"/></clipPath><clipPath id="ffcecafda3"><path d="M 22.859375 72.351562 L 45.167969 72.351562 L 45.167969 88.503906 L 22.859375 88.503906 Z M 22.859375 72.351562 " clip-rule="nonzero"/></clipPath><clipPath id="f9dba4693e"><path d="M 44.785156 72.351562 L 67.460938 72.351562 L 67.460938 88.507812 L 44.785156 88.507812 Z M 44.785156 72.351562 " clip-rule="nonzero"/></clipPath><clipPath id="203fc333b4"><path d="M 44.789062 72.351562 L 67.097656 72.351562 L 67.097656 88.503906 L 44.789062 88.503906 Z M 44.789062 72.351562 " clip-rule="nonzero"/></clipPath><clipPath id="95ad3afd29"><path d="M 96.441406 28.847656 L 119.117188 28.847656 L 119.117188 45.003906 L 96.441406 45.003906 Z M 96.441406 28.847656 " clip-rule="nonzero"/></clipPath><clipPath id="bf1b6b8ef4"><path d="M 96.445312 28.847656 L 118.753906 28.847656 L 118.753906 45 L 96.445312 45 Z M 96.445312 28.847656 " clip-rule="nonzero"/></clipPath><clipPath id="171d411b4b"><path d="M 118.371094 28.847656 L 141.046875 28.847656 L 141.046875 45.003906 L 118.371094 45.003906 Z M 118.371094 28.847656 " clip-rule="nonzero"/></clipPath><clipPath id="d3822a2514"><path d="M 118.375 28.847656 L 140.683594 28.847656 L 140.683594 45 L 118.375 45 Z M 118.375 28.847656 " clip-rule="nonzero"/></clipPath><clipPath id="9ba50c6fe0"><path d="M 140.300781 28.847656 L 162.976562 28.847656 L 162.976562 45.003906 L 140.300781 45.003906 Z M 140.300781 28.847656 " clip-rule="nonzero"/></clipPath><clipPath id="c02ac52bbd"><path d="M 140.300781 28.847656 L 162.613281 28.847656 L 162.613281 45 L 140.300781 45 Z M 140.300781 28.847656 " clip-rule="nonzero"/></clipPath><clipPath id="d693ba9099"><path d="M 96.441406 48.304688 L 119.117188 48.304688 L 119.117188 64.460938 L 96.441406 64.460938 Z M 96.441406 48.304688 " clip-rule="nonzero"/></clipPath><clipPath id="306990a482"><path d="M 96.445312 48.304688 L 118.753906 48.304688 L 118.753906 64.457031 L 96.445312 64.457031 Z M 96.445312 48.304688 " clip-rule="nonzero"/></clipPath><clipPath id="9bd4787c8e"><path d="M 118.371094 48.304688 L 141.046875 48.304688 L 141.046875 64.460938 L 118.371094 64.460938 Z M 118.371094 48.304688 " clip-rule="nonzero"/></clipPath><clipPath id="f8fbfcfde1"><path d="M 118.375 48.304688 L 140.683594 48.304688 L 140.683594 64.457031 L 118.375 64.457031 Z M 118.375 48.304688 " clip-rule="nonzero"/></clipPath><clipPath id="3cbc95cb4d"><path d="M 140.300781 48.304688 L 162.976562 48.304688 L 162.976562 64.460938 L 140.300781 64.460938 Z M 140.300781 48.304688 " clip-rule="nonzero"/></clipPath><clipPath id="fae11d297b"><path d="M 140.300781 48.304688 L 162.613281 48.304688 L 162.613281 64.457031 L 140.300781 64.457031 Z M 140.300781 48.304688 " clip-rule="nonzero"/></clipPath><clipPath id="196b3ed6eb"><path d="M 59 50 L 102 50 L 102 88.507812 L 59 88.507812 Z M 59 50 " clip-rule="nonzero"/></clipPath></defs><g clip-path="url(#c3e94c8826)"><path fill="#919191" d="M 0.925781 0.28125 L 23.601562 0.28125 L 23.601562 16.4375 L 0.925781 16.4375 Z M 0.925781 0.28125 " fill-opacity="1" fill-rule="nonzero"/></g><g clip-path="url(#90d7ebc1fe)"><path stroke-linecap="butt" transform="matrix(0.74375, 0, 0, 0.74375, 0.928178, 0.280508)" fill="none" stroke-linejoin="miter" d="M 0.00202939 0.000998271 L 30.479973 0.000998271 L 30.479973 21.718437 L 0.00202939 21.718437 Z M 0.00202939 0.000998271 " stroke="#000000" stroke-width="2" stroke-opacity="1" stroke-miterlimit="4"/></g><g clip-path="url(#2cb0734f90)"><path fill="#919191" d="M 22.855469 0.28125 L 45.53125 0.28125 L 45.53125 16.4375 L 22.855469 16.4375 Z M 22.855469 0.28125 " fill-opacity="1" fill-rule="nonzero"/></g><g clip-path="url(#b36c610ab4)"><path stroke-linecap="butt" transform="matrix(0.74375, 0, 0, 0.74375, 22.857744, 0.280508)" fill="none" stroke-linejoin="miter" d="M 0.00219337 0.000998271 L 30.480136 0.000998271 L 30.480136 21.718437 L 0.00219337 21.718437 Z M 0.00219337 0.000998271 " stroke="#000000" stroke-width="2" stroke-opacity="1" stroke-miterlimit="4"/></g><g clip-path="url(#edce8c4b67)"><path fill="#919191" d="M 44.785156 0.28125 L 67.460938 0.28125 L 67.460938 16.4375 L 44.785156 16.4375 Z M 44.785156 0.28125 " fill-opacity="1" fill-rule="nonzero"/></g><g clip-path="url(#ddac39fbbc)"><path stroke-linecap="butt" transform="matrix(0.74375, 0, 0, 0.74375, 44.787307, 0.280508)" fill="none" stroke-linejoin="miter" d="M 0.00236073 0.000998271 L 30.480304 0.000998271 L 30.480304 21.718437 L 0.00236073 21.718437 Z M 0.00236073 0.000998271 " stroke="#000000" stroke-width="2" stroke-opacity="1" stroke-miterlimit="4"/></g><g clip-path="url(#7139cd136f)"><path fill="#919191" d="M 0.925781 72.351562 L 23.601562 72.351562 L 23.601562 88.507812 L 0.925781 88.507812 Z M 0.925781 72.351562 " fill-opacity="1" fill-rule="nonzero"/></g><g clip-path="url(#de52b65094)"><path stroke-linecap="butt" transform="matrix(0.74375, 0, 0, 0.74375, 0.928178, 72.350921)" fill="none" stroke-linejoin="miter" d="M 0.00202939 0.000863065 L 30.479973 0.000863065 L 30.479973 21.718301 L 0.00202939 21.718301 Z M 0.00202939 0.000863065 " stroke="#000000" stroke-width="2" stroke-opacity="1" stroke-miterlimit="4"/></g><g clip-path="url(#642d64fdb9)"><path fill="#919191" d="M 22.855469 72.351562 L 45.53125 72.351562 L 45.53125 88.507812 L 22.855469 88.507812 Z M 22.855469 72.351562 " fill-opacity="1" fill-rule="nonzero"/></g><g clip-path="url(#ffcecafda3)"><path stroke-linecap="butt" transform="matrix(0.74375, 0, 0, 0.74375, 22.857744, 72.350921)" fill="none" stroke-linejoin="miter" d="M 0.00219337 0.000863065 L 30.480136 0.000863065 L 30.480136 21.718301 L 0.00219337 21.718301 Z M 0.00219337 0.000863065 " stroke="#000000" stroke-width="2" stroke-opacity="1" stroke-miterlimit="4"/></g><g clip-path="url(#f9dba4693e)"><path fill="#919191" d="M 44.785156 72.351562 L 67.460938 72.351562 L 67.460938 88.507812 L 44.785156 88.507812 Z M 44.785156 72.351562 " fill-opacity="1" fill-rule="nonzero"/></g><g clip-path="url(#203fc333b4)"><path stroke-linecap="butt" transform="matrix(0.74375, 0, 0, 0.74375, 44.787307, 72.350921)" fill="none" stroke-linejoin="miter" d="M 0.00236073 0.000863065 L 30.480304 0.000863065 L 30.480304 21.718301 L 0.00236073 21.718301 Z M 0.00236073 0.000863065 " stroke="#000000" stroke-width="2" stroke-opacity="1" stroke-miterlimit="4"/></g><g clip-path="url(#95ad3afd29)"><path fill="#919191" d="M 96.441406 28.847656 L 119.117188 28.847656 L 119.117188 45.003906 L 96.441406 45.003906 Z M 96.441406 28.847656 " fill-opacity="1" fill-rule="nonzero"/></g><g clip-path="url(#bf1b6b8ef4)"><path stroke-linecap="butt" transform="matrix(0.74375, 0, 0, 0.74375, 96.443606, 28.847953)" fill="none" stroke-linejoin="miter" d="M 0.0022939 -0.000399582 L 30.480237 -0.000399582 L 30.480237 21.717039 L 0.0022939 21.717039 Z M 0.0022939 -0.000399582 " stroke="#000000" stroke-width="2" stroke-opacity="1" stroke-miterlimit="4"/></g><g clip-path="url(#171d411b4b)"><path fill="#919191" d="M 118.371094 28.847656 L 141.046875 28.847656 L 141.046875 45.003906 L 118.371094 45.003906 Z M 118.371094 28.847656 " fill-opacity="1" fill-rule="nonzero"/></g><g clip-path="url(#d3822a2514)"><path stroke-linecap="butt" transform="matrix(0.74375, 0, 0, 0.74375, 118.373175, 28.847953)" fill="none" stroke-linejoin="miter" d="M 0.0024539 -0.000399582 L 30.480397 -0.000399582 L 30.480397 21.717039 L 0.0024539 21.717039 Z M 0.0024539 -0.000399582 " stroke="#000000" stroke-width="2" stroke-opacity="1" stroke-miterlimit="4"/></g><g clip-path="url(#9ba50c6fe0)"><path fill="#919191" d="M 140.300781 28.847656 L 162.976562 28.847656 L 162.976562 45.003906 L 140.300781 45.003906 Z M 140.300781 28.847656 " fill-opacity="1" fill-rule="nonzero"/></g><g clip-path="url(#c02ac52bbd)"><path stroke-linecap="butt" transform="matrix(0.74375, 0, 0, 0.74375, 140.302729, 28.847953)" fill="none" stroke-linejoin="miter" d="M -0.00261899 -0.000399582 L 30.480576 -0.000399582 L 30.480576 21.717039 L -0.00261899 21.717039 Z M -0.00261899 -0.000399582 " stroke="#000000" stroke-width="2" stroke-opacity="1" stroke-miterlimit="4"/></g><g clip-path="url(#d693ba9099)"><path fill="#919191" d="M 96.441406 48.304688 L 119.117188 48.304688 L 119.117188 64.460938 L 96.441406 64.460938 Z M 96.441406 48.304688 " fill-opacity="1" fill-rule="nonzero"/></g><g clip-path="url(#306990a482)"><path stroke-linecap="butt" transform="matrix(0.74375, 0, 0, 0.74375, 96.443606, 48.304173)" fill="none" stroke-linejoin="miter" d="M 0.0022939 0.00069142 L 30.480237 0.00069142 L 30.480237 21.71813 L 0.0022939 21.71813 Z M 0.0022939 0.00069142 " stroke="#000000" stroke-width="2" stroke-opacity="1" stroke-miterlimit="4"/></g><g clip-path="url(#9bd4787c8e)"><path fill="#919191" d="M 118.371094 48.304688 L 141.046875 48.304688 L 141.046875 64.460938 L 118.371094 64.460938 Z M 118.371094 48.304688 " fill-opacity="1" fill-rule="nonzero"/></g><g clip-path="url(#f8fbfcfde1)"><path stroke-linecap="butt" transform="matrix(0.74375, 0, 0, 0.74375, 118.373175, 48.304173)" fill="none" stroke-linejoin="miter" d="M 0.0024539 0.00069142 L 30.480397 0.00069142 L 30.480397 21.71813 L 0.0024539 21.71813 Z M 0.0024539 0.00069142 " stroke="#000000" stroke-width="2" stroke-opacity="1" stroke-miterlimit="4"/></g><g clip-path="url(#3cbc95cb4d)"><path fill="#919191" d="M 140.300781 48.304688 L 162.976562 48.304688 L 162.976562 64.460938 L 140.300781 64.460938 Z M 140.300781 48.304688 " fill-opacity="1" fill-rule="nonzero"/></g><g clip-path="url(#fae11d297b)"><path stroke-linecap="butt" transform="matrix(0.74375, 0, 0, 0.74375, 140.302729, 48.304173)" fill="none" stroke-linejoin="miter" d="M -0.00261899 0.00069142 L 30.480576 0.00069142 L 30.480576 21.71813 L -0.00261899 21.71813 Z M -0.00261899 0.00069142 " stroke="#000000" stroke-width="2" stroke-opacity="1" stroke-miterlimit="4"/></g><path stroke-linecap="butt" transform="matrix(0.607311, 0.429345, -0.429345, 0.607311, 67.888532, 7.751856)" fill="none" stroke-linejoin="miter" d="M 0.00208233 0.99887 L 42.223543 1.001088 " stroke="#000000" stroke-width="2" stroke-opacity="1" stroke-miterlimit="4"/><path stroke-linecap="round" transform="matrix(0.607311, 0.429345, -0.429345, 0.607311, 67.888532, 7.751856)" fill-opacity="1" fill="#000000" fill-rule="nonzero" stroke-linejoin="round" d="M 42.724165 -2.002831 L 46.723327 0.99735 L 42.722421 3.999493 Z M 42.724165 -2.002831 " stroke="#000000" stroke-width="2" stroke-opacity="1" stroke-miterlimit="4"/><g clip-path="url(#196b3ed6eb)"><path stroke-linecap="butt" transform="matrix(0.57239, -0.474904, 0.474904, 0.57239, 66.983745, 79.853818)" fill="none" stroke-linejoin="miter" d="M -0.00130711 0.99817 L 45.133823 1.000355 " stroke="#000000" stroke-width="2" stroke-opacity="1" stroke-miterlimit="4"/></g><path stroke-linecap="round" transform="matrix(0.57239, -0.474904, 0.474904, 0.57239, 66.983745, 79.853818)" fill-opacity="1" fill="#000000" fill-rule="nonzero" stroke-linejoin="round" d="M 45.637752 -2.000594 L 49.635976 1.00275 L 45.633211 4.001158 Z M 45.637752 -2.000594 " stroke="#000000" stroke-width="2" stroke-opacity="1" stroke-miterlimit="4"/></svg>