<svg xmlns="http://www.w3.org/2000/svg" xmlns:xlink="http://www.w3.org/1999/xlink" width="125" zoomAndPan="magnify" viewBox="0 0 93.75 120.750001" height="161" preserveAspectRatio="xMidYMid meet" version="1.0"><defs><clipPath id="db42e26ba9"><path d="M 0.296875 0.335938 L 93.050781 0.335938 L 93.050781 120.015625 L 0.296875 120.015625 Z M 0.296875 0.335938 " clip-rule="nonzero"/></clipPath></defs><g clip-path="url(#db42e26ba9)"><path fill="#000000" d="M 93.015625 26.164062 L 93.015625 115.714844 C 93.015625 116.90625 92.523438 117.984375 91.753906 118.753906 C 90.980469 119.527344 89.90625 120.015625 88.714844 120.015625 L 4.632812 120.015625 C 3.441406 120.015625 2.367188 119.527344 1.59375 118.753906 C 0.824219 117.984375 0.332031 116.90625 0.332031 115.714844 L 0.332031 4.636719 C 0.332031 3.445312 0.824219 2.371094 1.59375 1.597656 C 2.367188 0.828125 3.441406 0.335938 4.632812 0.335938 L 67.140625 0.335938 C 67.1875 0.335938 67.253906 0.335938 67.300781 0.335938 C 67.863281 0.335938 68.378906 0.59375 68.726562 0.992188 L 92.359375 24.761719 C 92.757812 25.113281 93.015625 25.605469 93.015625 26.1875 Z M 89.273438 115.714844 L 89.273438 28.035156 L 67.300781 28.035156 C 66.273438 28.035156 65.433594 27.195312 65.433594 26.164062 L 65.433594 4.050781 L 4.632812 4.050781 C 4.46875 4.050781 4.328125 4.121094 4.238281 4.214844 C 4.144531 4.308594 4.074219 4.449219 4.074219 4.613281 L 4.074219 115.691406 C 4.074219 115.855469 4.144531 115.996094 4.238281 116.089844 C 4.328125 116.183594 4.46875 116.253906 4.632812 116.253906 L 88.714844 116.253906 C 88.878906 116.253906 89.019531 116.183594 89.113281 116.089844 C 89.207031 115.996094 89.273438 115.855469 89.273438 115.691406 Z M 89.273438 115.714844 " fill-opacity="1" fill-rule="nonzero"/></g><path fill="#000000" d="M 43.996094 54.824219 C 44.675781 54.542969 45.585938 54.378906 46.734375 54.378906 C 48.160156 54.378906 49.257812 54.636719 50.003906 55.175781 C 50.753906 55.710938 51.195312 56.554688 51.335938 57.699219 L 48.089844 57.886719 C 47.996094 57.394531 47.832031 57.019531 47.550781 56.785156 C 47.269531 56.554688 46.894531 56.4375 46.40625 56.4375 C 46.007812 56.4375 45.703125 56.53125 45.492188 56.695312 C 45.28125 56.855469 45.191406 57.066406 45.191406 57.324219 C 45.191406 57.511719 45.28125 57.652344 45.445312 57.792969 C 45.609375 57.933594 45.984375 58.074219 46.617188 58.210938 C 48.113281 58.539062 49.210938 58.867188 49.839844 59.195312 C 50.496094 59.523438 50.964844 59.941406 51.265625 60.433594 C 51.570312 60.925781 51.710938 61.484375 51.710938 62.09375 C 51.710938 62.816406 51.5 63.472656 51.128906 64.078125 C 50.730469 64.6875 50.167969 65.132812 49.46875 65.460938 C 48.765625 65.761719 47.855469 65.925781 46.777344 65.925781 C 44.886719 65.925781 43.578125 65.550781 42.828125 64.828125 C 42.105469 64.101562 41.683594 63.167969 41.589844 62.046875 L 44.863281 61.835938 C 44.933594 62.375 45.074219 62.769531 45.304688 63.050781 C 45.65625 63.496094 46.171875 63.730469 46.824219 63.730469 C 47.316406 63.730469 47.691406 63.613281 47.972656 63.378906 C 48.226562 63.144531 48.367188 62.886719 48.367188 62.585938 C 48.367188 62.304688 48.25 62.046875 47.996094 61.8125 C 47.738281 61.578125 47.152344 61.367188 46.21875 61.15625 C 44.699219 60.808594 43.625 60.363281 42.992188 59.800781 C 42.339844 59.242188 42.011719 58.515625 42.011719 57.652344 C 42.011719 57.066406 42.175781 56.53125 42.5 56.015625 C 42.828125 55.5 43.34375 55.105469 43.996094 54.824219 Z M 56.550781 65.738281 L 52.34375 54.589844 L 55.941406 54.589844 L 58.445312 62.605469 L 60.921875 54.589844 L 64.425781 54.589844 L 60.289062 65.738281 Z M 80.484375 70.929688 L 80.484375 49.402344 C 80.484375 48.160156 79.996094 47.0625 79.175781 46.246094 C 78.359375 45.425781 77.261719 44.9375 76.023438 44.9375 L 17.304688 44.9375 C 16.0625 44.9375 14.964844 45.425781 14.148438 46.246094 C 13.328125 47.0625 12.839844 48.160156 12.839844 49.402344 L 12.839844 70.929688 C 12.839844 72.167969 13.328125 73.265625 14.148438 74.085938 C 14.964844 74.902344 16.0625 75.394531 17.304688 75.394531 L 76.023438 75.394531 C 77.261719 75.394531 78.359375 74.902344 79.175781 74.085938 C 79.996094 73.265625 80.484375 72.167969 80.484375 70.929688 Z M 29.644531 60.128906 C 29.644531 58.28125 30.136719 56.855469 31.117188 55.875 C 32.097656 54.894531 33.480469 54.378906 35.277344 54.378906 C 36.679688 54.378906 37.78125 54.660156 38.597656 55.222656 C 39.394531 55.78125 40 56.671875 40.398438 57.839844 L 37.359375 58.515625 C 37.242188 58.167969 37.148438 57.933594 37.03125 57.769531 C 36.84375 57.511719 36.609375 57.300781 36.332031 57.160156 C 36.050781 57.019531 35.746094 56.949219 35.394531 56.949219 C 34.625 56.949219 34.015625 57.253906 33.59375 57.886719 C 33.292969 58.351562 33.128906 59.078125 33.128906 60.082031 C 33.128906 61.320312 33.316406 62.164062 33.6875 62.628906 C 34.0625 63.097656 34.601562 63.308594 35.277344 63.308594 C 35.933594 63.308594 36.449219 63.121094 36.773438 62.746094 C 37.101562 62.375 37.359375 61.835938 37.5 61.132812 L 40.515625 62.046875 C 40.304688 62.886719 40 63.589844 39.554688 64.171875 C 39.113281 64.734375 38.574219 65.179688 37.921875 65.460938 C 37.265625 65.738281 36.449219 65.902344 35.441406 65.902344 C 34.226562 65.902344 33.246094 65.714844 32.472656 65.367188 C 31.703125 65.015625 31.046875 64.382812 30.488281 63.496094 C 29.925781 62.605469 29.644531 61.460938 29.644531 60.082031 Z M 29.644531 60.128906 " fill-opacity="1" fill-rule="evenodd"/></svg>