<svg xmlns="http://www.w3.org/2000/svg" xmlns:xlink="http://www.w3.org/1999/xlink" width="72" zoomAndPan="magnify" viewBox="0 0 54 61.499998" height="82" preserveAspectRatio="xMidYMid meet" version="1.0"><defs><clipPath id="a71006c1e9"><path d="M 0.414062 0.644531 L 53.234375 0.644531 L 53.234375 60.902344 L 0.414062 60.902344 Z M 0.414062 0.644531 " clip-rule="nonzero"/></clipPath></defs><g clip-path="url(#a71006c1e9)"><path fill="#000000" d="M 26.824219 0.78125 C 13.699219 0.78125 0.414062 3.304688 0.414062 8.125 L 0.414062 53.421875 C 0.414062 58.246094 13.699219 60.765625 26.824219 60.765625 C 39.949219 60.765625 53.234375 58.246094 53.234375 53.421875 L 53.234375 8.125 C 53.234375 3.304688 39.949219 0.78125 26.824219 0.78125 Z M 26.824219 2.847656 C 41.6875 2.847656 51.171875 5.972656 51.171875 8.125 C 51.171875 10.273438 41.6875 13.398438 26.824219 13.398438 C 11.960938 13.398438 2.476562 10.273438 2.476562 8.125 C 2.476562 5.972656 11.960938 2.847656 26.824219 2.847656 Z M 26.824219 58.699219 C 12.1875 58.699219 2.476562 55.523438 2.476562 53.421875 L 2.476562 41.355469 C 6.703125 44.195312 16.808594 45.667969 26.824219 45.667969 C 36.839844 45.667969 46.945312 44.195312 51.171875 41.355469 L 51.171875 53.421875 C 51.171875 55.574219 41.6875 58.699219 26.824219 58.699219 Z M 26.824219 43.597656 C 11.960938 43.597656 2.476562 40.472656 2.476562 38.324219 L 2.476562 26.257812 C 6.703125 29.097656 16.808594 30.566406 26.824219 30.566406 C 36.839844 30.566406 46.945312 29.097656 51.171875 26.257812 L 51.171875 38.324219 C 51.171875 40.472656 41.6875 43.597656 26.824219 43.597656 Z M 26.824219 28.5 C 11.960938 28.5 2.476562 25.375 2.476562 23.222656 L 2.476562 11.15625 C 6.703125 13.996094 16.808594 15.46875 26.824219 15.46875 C 36.839844 15.46875 46.945312 13.996094 51.171875 11.15625 L 51.171875 23.222656 C 51.171875 25.375 41.6875 28.5 26.824219 28.5 Z M 26.824219 28.5 " fill-opacity="1" fill-rule="nonzero"/></g></svg>