<svg xmlns="http://www.w3.org/2000/svg" xmlns:xlink="http://www.w3.org/1999/xlink" width="181" zoomAndPan="magnify" viewBox="0 0 135.75 120.749998" height="161" preserveAspectRatio="xMidYMid meet" version="1.0"><defs><clipPath id="e1ca549442"><path d="M 0.226562 0.253906 L 58 0.253906 L 58 120 L 0.226562 120 Z M 0.226562 0.253906 " clip-rule="nonzero"/></clipPath><clipPath id="823f8bc7ce"><path d="M 77.121094 0.253906 L 135.464844 0.253906 L 135.464844 120 L 77.121094 120 Z M 77.121094 0.253906 " clip-rule="nonzero"/></clipPath></defs><g clip-path="url(#e1ca549442)"><path fill="#000000" d="M 14.375 15 C 14.652344 13.074219 17.230469 11.648438 20.160156 11.796875 C 25.59375 12.074219 31.03125 12.324219 36.441406 12.5 C 39.144531 12.597656 41.875 12.671875 44.578125 12.75 L 45.605469 12.773438 L 47.160156 12.796875 L 50.191406 12.824219 L 51.71875 12.847656 L 52.996094 12.847656 C 53.019531 12.847656 52.996094 12.875 52.996094 12.898438 L 52.96875 13.097656 L 52.71875 16.152344 L 52.492188 19.179688 L 52.445312 19.933594 L 52.417969 20.484375 L 52.367188 21.484375 C 52.316406 22.160156 52.316406 22.835938 52.292969 23.484375 C 52.269531 24.136719 52.242188 24.835938 52.242188 25.488281 C 52.191406 28.167969 52.191406 30.871094 52.292969 33.574219 C 52.46875 41.65625 52.84375 49.765625 53.195312 57.902344 C 53.546875 66.035156 53.945312 70.667969 54.496094 78.800781 C 55.148438 89.640625 56.074219 100.453125 57.828125 111.238281 C 58.605469 115.671875 55.875 119.925781 52.695312 119.199219 C 50.089844 118.671875 48.234375 115.292969 48.511719 111.640625 C 49.464844 98.097656 49.414062 88.011719 49.039062 74.445312 C 48.835938 67.664062 48.5625 60.878906 48.285156 54.097656 C 48.011719 47.3125 47.734375 40.480469 47.734375 33.648438 C 47.761719 29.542969 47.808594 25.4375 47.960938 21.308594 L 48.085938 17.527344 L 48.085938 17.480469 C 48.085938 17.480469 48.085938 17.453125 48.085938 17.453125 L 47.761719 17.453125 L 47.359375 17.480469 C 47.109375 17.480469 46.832031 17.503906 46.582031 17.527344 L 45.832031 17.578125 L 45.65625 17.605469 L 45.332031 17.605469 L 44.578125 17.628906 C 36.441406 17.90625 28.300781 18.355469 20.1875 18.832031 C 16.90625 19.003906 14.023438 17.152344 14.375 15 Z M 12.222656 1.183594 C 10.96875 3.238281 9.742188 5.265625 8.488281 7.242188 C 7.238281 9.21875 5.933594 11.121094 4.507812 12.972656 C 4.207031 13.347656 3.933594 13.75 3.632812 14.148438 C 3.480469 14.351562 3.332031 14.527344 3.207031 14.726562 L 2.804688 15.328125 L 2.605469 15.625 L 2.378906 15.976562 L 1.828125 16.878906 L 1.550781 17.328125 C 1.453125 17.480469 1.378906 17.628906 1.300781 17.78125 L 0.851562 18.707031 C 0.703125 19.007812 0.550781 19.304688 0.449219 19.605469 C 0.351562 19.90625 0.300781 20.207031 0.25 20.507812 C 0.226562 20.832031 0.226562 21.160156 0.277344 21.457031 C 0.300781 21.609375 0.351562 21.785156 0.402344 21.933594 C 0.449219 22.085938 0.527344 22.234375 0.601562 22.386719 C 0.925781 22.910156 1.351562 23.386719 1.851562 23.785156 C 2.402344 24.210938 2.980469 24.613281 3.582031 24.9375 L 4.507812 25.488281 L 4.984375 25.765625 L 5.285156 25.964844 C 5.683594 26.214844 6.085938 26.488281 6.460938 26.738281 C 7.238281 27.265625 8.015625 27.839844 8.765625 28.441406 C 10.292969 29.667969 11.722656 31.046875 12.972656 32.570312 C 13.324219 33.023438 13.898438 32.972656 14.574219 32.546875 C 15.425781 31.921875 16.152344 31.144531 16.703125 30.21875 C 18.40625 27.589844 18.785156 24.488281 17.40625 24.414062 C 14.125 24.113281 11.246094 23.0625 8.464844 21.835938 L 7.6875 21.484375 L 7.488281 21.382812 L 7.339844 21.308594 L 7.136719 21.234375 C 6.886719 21.132812 6.636719 21.035156 6.359375 20.90625 C 6.085938 20.808594 5.835938 20.65625 5.636719 20.457031 C 5.535156 20.359375 5.484375 20.207031 5.484375 20.082031 C 5.484375 19.933594 5.511719 19.808594 5.585938 19.683594 C 5.710938 19.429688 5.859375 19.179688 5.984375 18.929688 L 6.4375 18.179688 C 6.710938 17.703125 7.011719 17.230469 7.289062 16.753906 C 7.5625 16.277344 7.863281 15.800781 8.140625 15.328125 C 9.617188 12.75 11.621094 10.546875 13.851562 8.570312 C 14.953125 7.566406 16.128906 6.640625 17.355469 5.816406 C 18.007812 5.363281 17.457031 3.886719 16.128906 2.511719 C 14.652344 1.058594 12.722656 0.332031 12.222656 1.183594 Z M 12.222656 1.183594 " fill-opacity="1" fill-rule="nonzero"/></g><g clip-path="url(#823f8bc7ce)"><path fill="#000000" d="M 121.347656 15 C 121.074219 13.074219 118.492188 11.648438 115.5625 11.796875 C 110.128906 12.074219 104.695312 12.324219 99.285156 12.5 C 96.578125 12.597656 93.847656 12.671875 91.144531 12.75 L 90.117188 12.773438 L 88.566406 12.796875 L 85.535156 12.824219 L 84.007812 12.847656 L 82.730469 12.847656 C 82.703125 12.847656 82.730469 12.875 82.730469 12.898438 L 82.753906 13.097656 L 83.003906 16.152344 L 83.230469 19.179688 L 83.28125 19.933594 L 83.304688 20.484375 L 83.355469 21.484375 C 83.40625 22.160156 83.40625 22.835938 83.429688 23.484375 C 83.457031 24.136719 83.480469 24.835938 83.480469 25.488281 C 83.53125 28.167969 83.53125 30.871094 83.429688 33.574219 C 83.253906 41.65625 82.878906 49.765625 82.527344 57.902344 C 82.179688 66.035156 81.777344 70.667969 81.226562 78.800781 C 80.574219 89.640625 79.648438 100.453125 77.894531 111.238281 C 77.121094 115.671875 79.847656 119.925781 83.03125 119.199219 C 85.632812 118.671875 87.488281 115.292969 87.210938 111.640625 C 86.261719 98.097656 86.3125 88.011719 86.6875 74.445312 C 86.886719 67.664062 87.164062 60.878906 87.4375 54.097656 C 87.714844 47.3125 87.988281 40.480469 87.988281 33.648438 C 87.964844 29.542969 87.914062 25.4375 87.761719 21.308594 L 87.636719 17.527344 L 87.636719 17.480469 C 87.636719 17.480469 87.636719 17.453125 87.636719 17.453125 L 87.964844 17.453125 L 88.363281 17.480469 C 88.613281 17.480469 88.890625 17.503906 89.140625 17.527344 L 89.890625 17.578125 L 90.066406 17.605469 L 90.394531 17.605469 L 91.144531 17.628906 C 99.285156 17.90625 107.421875 18.355469 115.539062 18.832031 C 118.820312 19.003906 121.699219 17.152344 121.347656 15 Z M 123.503906 1.183594 C 124.753906 3.238281 125.980469 5.265625 127.234375 7.242188 C 128.484375 9.21875 129.789062 11.121094 131.214844 12.972656 C 131.515625 13.347656 131.792969 13.75 132.09375 14.148438 C 132.242188 14.351562 132.394531 14.527344 132.519531 14.726562 L 132.917969 15.328125 L 133.121094 15.625 L 133.34375 15.976562 L 133.894531 16.878906 L 134.171875 17.328125 C 134.269531 17.480469 134.347656 17.628906 134.421875 17.78125 L 134.871094 18.707031 C 135.023438 19.007812 135.171875 19.304688 135.273438 19.605469 C 135.375 19.90625 135.421875 20.207031 135.472656 20.507812 C 135.5 20.832031 135.5 21.160156 135.449219 21.457031 C 135.421875 21.609375 135.375 21.785156 135.324219 21.933594 C 135.273438 22.085938 135.199219 22.234375 135.121094 22.386719 C 134.796875 22.910156 134.371094 23.386719 133.871094 23.785156 C 133.320312 24.210938 132.742188 24.613281 132.144531 24.9375 L 131.214844 25.488281 L 130.738281 25.765625 L 130.441406 25.964844 C 130.039062 26.214844 129.636719 26.488281 129.261719 26.738281 C 128.484375 27.265625 127.710938 27.839844 126.957031 28.441406 C 125.429688 29.667969 124.003906 31.046875 122.75 32.570312 C 122.398438 33.023438 121.824219 32.972656 121.148438 32.546875 C 120.296875 31.921875 119.570312 31.144531 119.019531 30.21875 C 117.316406 27.589844 116.941406 24.488281 118.316406 24.414062 C 121.597656 24.113281 124.480469 23.0625 127.257812 21.835938 L 128.035156 21.484375 L 128.234375 21.382812 L 128.335938 21.332031 L 128.386719 21.308594 L 128.585938 21.234375 C 128.835938 21.132812 129.085938 21.035156 129.363281 20.90625 C 129.636719 20.808594 129.886719 20.65625 130.089844 20.457031 C 130.1875 20.359375 130.238281 20.207031 130.238281 20.082031 C 130.238281 19.933594 130.214844 19.808594 130.140625 19.683594 C 130.015625 19.429688 129.863281 19.179688 129.738281 18.929688 L 129.289062 18.179688 C 129.011719 17.703125 128.710938 17.230469 128.4375 16.753906 C 128.160156 16.277344 127.859375 15.800781 127.585938 15.328125 C 126.105469 12.75 124.101562 10.546875 121.875 8.570312 C 120.773438 7.566406 119.59375 6.640625 118.367188 5.816406 C 117.71875 5.363281 118.269531 3.886719 119.59375 2.511719 C 121.074219 1.058594 123 0.332031 123.503906 1.183594 Z M 123.503906 1.183594 " fill-opacity="1" fill-rule="nonzero"/></g></svg>