<svg xmlns="http://www.w3.org/2000/svg" xmlns:xlink="http://www.w3.org/1999/xlink" width="156" zoomAndPan="magnify" viewBox="0 0 116.88 120.749998" height="161" preserveAspectRatio="xMidYMid meet" version="1.0"><defs><clipPath id="e2d0ed0214"><path d="M 0.0859375 0.507812 L 116 0.507812 L 116 120.257812 L 0.0859375 120.257812 Z M 0.0859375 0.507812 " clip-rule="nonzero"/></clipPath></defs><g clip-path="url(#e2d0ed0214)"><path fill="#231f20" d="M 114.457031 5.511719 C 112.792969 2.445312 109.636719 0.558594 106.160156 0.558594 L 10.015625 0.558594 C 6.566406 0.558594 3.386719 2.445312 1.722656 5.511719 C 0.0859375 8.574219 0.230469 12.277344 2.140625 15.171875 L 41.871094 76 C 42.210938 76.515625 42.382812 77.105469 42.382812 77.71875 L 42.382812 110.769531 C 42.382812 115.964844 46.617188 120.207031 51.800781 120.207031 L 64.375 120.207031 C 69.5625 120.207031 73.796875 115.964844 73.796875 110.769531 L 73.796875 77.71875 C 73.796875 77.105469 73.964844 76.515625 74.308594 76 L 114.039062 15.195312 C 115.949219 12.277344 116.09375 8.574219 114.457031 5.511719 Z M 108.78125 11.738281 L 69.050781 72.542969 C 68.046875 74.089844 67.507812 75.878906 67.507812 77.71875 L 67.507812 110.769531 C 67.507812 112.507812 66.089844 113.90625 64.375 113.90625 L 51.800781 113.90625 C 50.066406 113.90625 48.671875 112.484375 48.671875 110.769531 L 48.671875 77.71875 C 48.671875 75.878906 48.132812 74.089844 47.128906 72.542969 L 7.398438 11.738281 C 6.46875 10.316406 6.984375 9.015625 7.253906 8.527344 C 7.523438 8.035156 8.328125 6.882812 10.015625 6.882812 L 106.160156 6.882812 C 107.851562 6.882812 108.65625 8.035156 108.925781 8.527344 C 109.195312 8.992188 109.710938 10.316406 108.78125 11.738281 Z M 108.78125 11.738281 " fill-opacity="1" fill-rule="nonzero"/></g></svg>