<svg xmlns="http://www.w3.org/2000/svg" xmlns:xlink="http://www.w3.org/1999/xlink" width="105" zoomAndPan="magnify" viewBox="0 0 78.75 62.999997" height="84" preserveAspectRatio="xMidYMid meet" version="1.0"><defs><clipPath id="f1a24f70ed"><path d="M 0.59375 0.382812 L 52.519531 0.382812 L 52.519531 18.800781 L 0.59375 18.800781 Z M 0.59375 0.382812 " clip-rule="nonzero"/></clipPath><clipPath id="1c99e7ed6f"><path d="M 0.605469 0.382812 L 52.183594 0.382812 L 52.183594 18.792969 L 0.605469 18.792969 Z M 0.605469 0.382812 " clip-rule="nonzero"/></clipPath><clipPath id="29bee7eb6f"><path d="M 25.992188 43.8125 L 77.917969 43.8125 L 77.917969 62.230469 L 25.992188 62.230469 Z M 25.992188 43.8125 " clip-rule="nonzero"/></clipPath><clipPath id="99036750d7"><path d="M 26.003906 43.8125 L 77.578125 43.8125 L 77.578125 62.222656 L 26.003906 62.222656 Z M 26.003906 43.8125 " clip-rule="nonzero"/></clipPath></defs><g clip-path="url(#f1a24f70ed)"><path fill="#919191" d="M 0.59375 0.382812 L 52.519531 0.382812 L 52.519531 18.800781 L 0.59375 18.800781 Z M 0.59375 0.382812 " fill-opacity="1" fill-rule="nonzero"/></g><g clip-path="url(#1c99e7ed6f)"><path stroke-linecap="butt" transform="matrix(0.747627, 0, 0, 0.747627, 0.606188, 0.38165)" fill="none" stroke-linejoin="miter" d="M -0.000961661 0.00155538 L 69.427079 0.00155538 L 69.427079 24.626356 L -0.000961661 24.626356 Z M -0.000961661 0.00155538 " stroke="#000000" stroke-width="2" stroke-opacity="1" stroke-miterlimit="4"/></g><path stroke-linecap="butt" transform="matrix(0.445527, 0.600376, -0.600376, 0.445527, 27.157611, 18.356278)" fill="none" stroke-linejoin="miter" d="M -0.0000163829 0.997725 L 36.160727 0.999737 " stroke="#000000" stroke-width="2" stroke-opacity="1" stroke-miterlimit="4"/><path stroke-linecap="round" transform="matrix(0.445527, 0.600376, -0.600376, 0.445527, 27.157611, 18.356278)" fill-opacity="1" fill="#000000" fill-rule="nonzero" stroke-linejoin="round" d="M 36.661693 -1.99879 L 40.661497 1.001916 L 36.660864 3.99944 Z M 36.661693 -1.99879 " stroke="#000000" stroke-width="2" stroke-opacity="1" stroke-miterlimit="4"/><g clip-path="url(#29bee7eb6f)"><path fill="#919191" d="M 25.992188 43.8125 L 77.917969 43.8125 L 77.917969 62.230469 L 25.992188 62.230469 Z M 25.992188 43.8125 " fill-opacity="1" fill-rule="nonzero"/></g><g clip-path="url(#99036750d7)"><path stroke-linecap="butt" transform="matrix(0.747627, 0, 0, 0.747627, 26.002119, 43.813317)" fill="none" stroke-linejoin="miter" d="M 0.00239037 -0.00109276 L 69.425206 -0.00109276 L 69.425206 24.623708 L 0.00239037 24.623708 Z M 0.00239037 -0.00109276 " stroke="#000000" stroke-width="2" stroke-opacity="1" stroke-miterlimit="4"/></g></svg>