<svg xmlns="http://www.w3.org/2000/svg" xmlns:xlink="http://www.w3.org/1999/xlink" width="303" zoomAndPan="magnify" viewBox="0 0 227.25 89.249998" height="119" preserveAspectRatio="xMidYMid meet" version="1.0"><defs><clipPath id="c0bbab4cd3"><path d="M 1.191406 0.28125 L 23.863281 0.28125 L 23.863281 16.4375 L 1.191406 16.4375 Z M 1.191406 0.28125 " clip-rule="nonzero"/></clipPath><clipPath id="fad3ec347e"><path d="M 1.191406 0.28125 L 23.503906 0.28125 L 23.503906 16.433594 L 1.191406 16.433594 Z M 1.191406 0.28125 " clip-rule="nonzero"/></clipPath><clipPath id="f2d343e0d3"><path d="M 23.117188 0.28125 L 45.792969 0.28125 L 45.792969 16.4375 L 23.117188 16.4375 Z M 23.117188 0.28125 " clip-rule="nonzero"/></clipPath><clipPath id="7c69190cd7"><path d="M 23.121094 0.28125 L 45.429688 0.28125 L 45.429688 16.433594 L 23.121094 16.433594 Z M 23.121094 0.28125 " clip-rule="nonzero"/></clipPath><clipPath id="9cd01cc64a"><path d="M 45.046875 0.28125 L 67.722656 0.28125 L 67.722656 16.4375 L 45.046875 16.4375 Z M 45.046875 0.28125 " clip-rule="nonzero"/></clipPath><clipPath id="af47968b2c"><path d="M 45.050781 0.28125 L 67.359375 0.28125 L 67.359375 16.433594 L 45.050781 16.433594 Z M 45.050781 0.28125 " clip-rule="nonzero"/></clipPath><clipPath id="a2e4d2bb53"><path d="M 1.191406 72.351562 L 23.863281 72.351562 L 23.863281 88.507812 L 1.191406 88.507812 Z M 1.191406 72.351562 " clip-rule="nonzero"/></clipPath><clipPath id="4404b79dc8"><path d="M 1.191406 72.351562 L 23.503906 72.351562 L 23.503906 88.503906 L 1.191406 88.503906 Z M 1.191406 72.351562 " clip-rule="nonzero"/></clipPath><clipPath id="92c3ae5ed6"><path d="M 23.117188 72.351562 L 45.792969 72.351562 L 45.792969 88.507812 L 23.117188 88.507812 Z M 23.117188 72.351562 " clip-rule="nonzero"/></clipPath><clipPath id="1fa6eb3a05"><path d="M 23.121094 72.351562 L 45.429688 72.351562 L 45.429688 88.503906 L 23.121094 88.503906 Z M 23.121094 72.351562 " clip-rule="nonzero"/></clipPath><clipPath id="c21812a143"><path d="M 45.046875 72.351562 L 67.722656 72.351562 L 67.722656 88.507812 L 45.046875 88.507812 Z M 45.046875 72.351562 " clip-rule="nonzero"/></clipPath><clipPath id="e72ab1b344"><path d="M 45.050781 72.351562 L 67.359375 72.351562 L 67.359375 88.503906 L 45.050781 88.503906 Z M 45.050781 72.351562 " clip-rule="nonzero"/></clipPath><clipPath id="25d3f08656"><path d="M 93.230469 36.679688 L 115.902344 36.679688 L 115.902344 52.835938 L 93.230469 52.835938 Z M 93.230469 36.679688 " clip-rule="nonzero"/></clipPath><clipPath id="192e59ae5e"><path d="M 93.230469 36.679688 L 115.542969 36.679688 L 115.542969 52.835938 L 93.230469 52.835938 Z M 93.230469 36.679688 " clip-rule="nonzero"/></clipPath><clipPath id="8e56a12b10"><path d="M 115.160156 36.679688 L 137.832031 36.679688 L 137.832031 52.835938 L 115.160156 52.835938 Z M 115.160156 36.679688 " clip-rule="nonzero"/></clipPath><clipPath id="c1843c8b89"><path d="M 115.160156 36.679688 L 137.472656 36.679688 L 137.472656 52.835938 L 115.160156 52.835938 Z M 115.160156 36.679688 " clip-rule="nonzero"/></clipPath><clipPath id="bb3a8d2a28"><path d="M 137.089844 36.679688 L 159.761719 36.679688 L 159.761719 52.835938 L 137.089844 52.835938 Z M 137.089844 36.679688 " clip-rule="nonzero"/></clipPath><clipPath id="39f7d32f63"><path d="M 137.089844 36.679688 L 159.402344 36.679688 L 159.402344 52.835938 L 137.089844 52.835938 Z M 137.089844 36.679688 " clip-rule="nonzero"/></clipPath><clipPath id="7392e3cfde"><path d="M 158.65625 36.535156 L 181.332031 36.535156 L 181.332031 52.691406 L 158.65625 52.691406 Z M 158.65625 36.535156 " clip-rule="nonzero"/></clipPath><clipPath id="1153435f08"><path d="M 158.660156 36.535156 L 180.96875 36.535156 L 180.96875 52.6875 L 158.660156 52.6875 Z M 158.660156 36.535156 " clip-rule="nonzero"/></clipPath><clipPath id="cda252f4f3"><path d="M 180.585938 36.535156 L 203.261719 36.535156 L 203.261719 52.691406 L 180.585938 52.691406 Z M 180.585938 36.535156 " clip-rule="nonzero"/></clipPath><clipPath id="445877b1be"><path d="M 180.589844 36.535156 L 202.898438 36.535156 L 202.898438 52.6875 L 180.589844 52.6875 Z M 180.589844 36.535156 " clip-rule="nonzero"/></clipPath><clipPath id="fb49a1b80c"><path d="M 202.515625 36.535156 L 225.191406 36.535156 L 225.191406 52.691406 L 202.515625 52.691406 Z M 202.515625 36.535156 " clip-rule="nonzero"/></clipPath><clipPath id="3519004feb"><path d="M 202.519531 36.535156 L 224.828125 36.535156 L 224.828125 52.6875 L 202.519531 52.6875 Z M 202.519531 36.535156 " clip-rule="nonzero"/></clipPath><clipPath id="e5b103110c"><path d="M 59 39 L 100 39 L 100 88.507812 L 59 88.507812 Z M 59 39 " clip-rule="nonzero"/></clipPath></defs><g clip-path="url(#c0bbab4cd3)"><path fill="#919191" d="M 1.191406 0.28125 L 23.863281 0.28125 L 23.863281 16.4375 L 1.191406 16.4375 Z M 1.191406 0.28125 " fill-opacity="1" fill-rule="nonzero"/></g><g clip-path="url(#fad3ec347e)"><path stroke-linecap="butt" transform="matrix(0.74375, 0, 0, 0.74375, 1.190679, 0.280508)" fill="none" stroke-linejoin="miter" d="M 0.000978032 0.000998271 L 30.478921 0.000998271 L 30.478921 21.718437 L 0.000978032 21.718437 Z M 0.000978032 0.000998271 " stroke="#000000" stroke-width="2" stroke-opacity="1" stroke-miterlimit="4"/></g><g clip-path="url(#f2d343e0d3)"><path fill="#919191" d="M 23.117188 0.28125 L 45.792969 0.28125 L 45.792969 16.4375 L 23.117188 16.4375 Z M 23.117188 0.28125 " fill-opacity="1" fill-rule="nonzero"/></g><g clip-path="url(#7c69190cd7)"><path stroke-linecap="butt" transform="matrix(0.74375, 0, 0, 0.74375, 23.120244, 0.280508)" fill="none" stroke-linejoin="miter" d="M 0.00114201 0.000998271 L 30.479085 0.000998271 L 30.479085 21.718437 L 0.00114201 21.718437 Z M 0.00114201 0.000998271 " stroke="#000000" stroke-width="2" stroke-opacity="1" stroke-miterlimit="4"/></g><g clip-path="url(#9cd01cc64a)"><path fill="#919191" d="M 45.046875 0.28125 L 67.722656 0.28125 L 67.722656 16.4375 L 45.046875 16.4375 Z M 45.046875 0.28125 " fill-opacity="1" fill-rule="nonzero"/></g><g clip-path="url(#af47968b2c)"><path stroke-linecap="butt" transform="matrix(0.74375, 0, 0, 0.74375, 45.049807, 0.280508)" fill="none" stroke-linejoin="miter" d="M 0.00130937 0.000998271 L 30.479253 0.000998271 L 30.479253 21.718437 L 0.00130937 21.718437 Z M 0.00130937 0.000998271 " stroke="#000000" stroke-width="2" stroke-opacity="1" stroke-miterlimit="4"/></g><g clip-path="url(#a2e4d2bb53)"><path fill="#919191" d="M 1.191406 72.351562 L 23.863281 72.351562 L 23.863281 88.507812 L 1.191406 88.507812 Z M 1.191406 72.351562 " fill-opacity="1" fill-rule="nonzero"/></g><g clip-path="url(#4404b79dc8)"><path stroke-linecap="butt" transform="matrix(0.74375, 0, 0, 0.74375, 1.190679, 72.350921)" fill="none" stroke-linejoin="miter" d="M 0.000978032 0.000863065 L 30.478921 0.000863065 L 30.478921 21.718301 L 0.000978032 21.718301 Z M 0.000978032 0.000863065 " stroke="#000000" stroke-width="2" stroke-opacity="1" stroke-miterlimit="4"/></g><g clip-path="url(#92c3ae5ed6)"><path fill="#919191" d="M 23.117188 72.351562 L 45.792969 72.351562 L 45.792969 88.507812 L 23.117188 88.507812 Z M 23.117188 72.351562 " fill-opacity="1" fill-rule="nonzero"/></g><g clip-path="url(#1fa6eb3a05)"><path stroke-linecap="butt" transform="matrix(0.74375, 0, 0, 0.74375, 23.120244, 72.350921)" fill="none" stroke-linejoin="miter" d="M 0.00114201 0.000863065 L 30.479085 0.000863065 L 30.479085 21.718301 L 0.00114201 21.718301 Z M 0.00114201 0.000863065 " stroke="#000000" stroke-width="2" stroke-opacity="1" stroke-miterlimit="4"/></g><g clip-path="url(#c21812a143)"><path fill="#919191" d="M 45.046875 72.351562 L 67.722656 72.351562 L 67.722656 88.507812 L 45.046875 88.507812 Z M 45.046875 72.351562 " fill-opacity="1" fill-rule="nonzero"/></g><g clip-path="url(#e72ab1b344)"><path stroke-linecap="butt" transform="matrix(0.74375, 0, 0, 0.74375, 45.049807, 72.350921)" fill="none" stroke-linejoin="miter" d="M 0.00130937 0.000863065 L 30.479253 0.000863065 L 30.479253 21.718301 L 0.00130937 21.718301 Z M 0.00130937 0.000863065 " stroke="#000000" stroke-width="2" stroke-opacity="1" stroke-miterlimit="4"/></g><g clip-path="url(#25d3f08656)"><path fill="#919191" d="M 93.230469 36.679688 L 115.902344 36.679688 L 115.902344 52.835938 L 93.230469 52.835938 Z M 93.230469 36.679688 " fill-opacity="1" fill-rule="nonzero"/></g><g clip-path="url(#192e59ae5e)"><path stroke-linecap="butt" transform="matrix(0.74375, 0, 0, 0.74375, 93.230593, 36.681476)" fill="none" stroke-linejoin="miter" d="M -0.000167511 -0.0024052 L 30.483028 -0.0024052 L 30.483028 21.720285 L -0.000167511 21.720285 Z M -0.000167511 -0.0024052 " stroke="#000000" stroke-width="2" stroke-opacity="1" stroke-miterlimit="4"/></g><g clip-path="url(#8e56a12b10)"><path fill="#919191" d="M 115.160156 36.679688 L 137.832031 36.679688 L 137.832031 52.835938 L 115.160156 52.835938 Z M 115.160156 36.679688 " fill-opacity="1" fill-rule="nonzero"/></g><g clip-path="url(#c1843c8b89)"><path stroke-linecap="butt" transform="matrix(0.74375, 0, 0, 0.74375, 115.160164, 36.681476)" fill="none" stroke-linejoin="miter" d="M -0.0000107042 -0.0024052 L 30.483185 -0.0024052 L 30.483185 21.720285 L -0.0000107042 21.720285 Z M -0.0000107042 -0.0024052 " stroke="#000000" stroke-width="2" stroke-opacity="1" stroke-miterlimit="4"/></g><g clip-path="url(#bb3a8d2a28)"><path fill="#919191" d="M 137.089844 36.679688 L 159.761719 36.679688 L 159.761719 52.835938 L 137.089844 52.835938 Z M 137.089844 36.679688 " fill-opacity="1" fill-rule="nonzero"/></g><g clip-path="url(#39f7d32f63)"><path stroke-linecap="butt" transform="matrix(0.74375, 0, 0, 0.74375, 137.089726, 36.681476)" fill="none" stroke-linejoin="miter" d="M 0.000158903 -0.0024052 L 30.483354 -0.0024052 L 30.483354 21.720285 L 0.000158903 21.720285 Z M 0.000158903 -0.0024052 " stroke="#000000" stroke-width="2" stroke-opacity="1" stroke-miterlimit="4"/></g><g clip-path="url(#7392e3cfde)"><path fill="#919191" d="M 158.65625 36.535156 L 181.332031 36.535156 L 181.332031 52.691406 L 158.65625 52.691406 Z M 158.65625 36.535156 " fill-opacity="1" fill-rule="nonzero"/></g><g clip-path="url(#1153435f08)"><path stroke-linecap="butt" transform="matrix(0.74375, 0, 0, 0.74375, 158.658474, 36.534248)" fill="none" stroke-linejoin="miter" d="M 0.0022616 0.00122129 L 30.480205 0.00122129 L 30.480205 21.71866 L 0.0022616 21.71866 Z M 0.0022616 0.00122129 " stroke="#000000" stroke-width="2" stroke-opacity="1" stroke-miterlimit="4"/></g><g clip-path="url(#cda252f4f3)"><path fill="#919191" d="M 180.585938 36.535156 L 203.261719 36.535156 L 203.261719 52.691406 L 180.585938 52.691406 Z M 180.585938 36.535156 " fill-opacity="1" fill-rule="nonzero"/></g><g clip-path="url(#445877b1be)"><path stroke-linecap="butt" transform="matrix(0.74375, 0, 0, 0.74375, 180.588028, 36.534248)" fill="none" stroke-linejoin="miter" d="M 0.00244081 0.00122129 L 30.480384 0.00122129 L 30.480384 21.71866 L 0.00244081 21.71866 Z M 0.00244081 0.00122129 " stroke="#000000" stroke-width="2" stroke-opacity="1" stroke-miterlimit="4"/></g><g clip-path="url(#fb49a1b80c)"><path fill="#919191" d="M 202.515625 36.535156 L 225.191406 36.535156 L 225.191406 52.691406 L 202.515625 52.691406 Z M 202.515625 36.535156 " fill-opacity="1" fill-rule="nonzero"/></g><g clip-path="url(#3519004feb)"><path stroke-linecap="butt" transform="matrix(0.74375, 0, 0, 0.74375, 202.517597, 36.534248)" fill="none" stroke-linejoin="miter" d="M 0.00260082 0.00122129 L 30.480544 0.00122129 L 30.480544 21.71866 L 0.00260082 21.71866 Z M 0.00260082 0.00122129 " stroke="#000000" stroke-width="2" stroke-opacity="1" stroke-miterlimit="4"/></g><path stroke-linecap="butt" transform="matrix(0.426813, 0.609093, -0.609093, 0.426813, 68.329098, 7.935185)" fill="none" stroke-linejoin="miter" d="M 0.000444974 1.002372 L 54.262954 1.002055 " stroke="#000000" stroke-width="2" stroke-opacity="1" stroke-miterlimit="4"/><path stroke-linecap="round" transform="matrix(0.426813, 0.609093, -0.609093, 0.426813, 68.329098, 7.935185)" fill-opacity="1" fill="#000000" fill-rule="nonzero" stroke-linejoin="round" d="M 54.763979 -2.000975 L 58.760988 0.998682 L 54.760156 3.999123 Z M 54.763979 -2.000975 " stroke="#000000" stroke-width="2" stroke-opacity="1" stroke-miterlimit="4"/><g clip-path="url(#e5b103110c)"><path stroke-linecap="butt" transform="matrix(0.432625, -0.604979, 0.604979, 0.432625, 67.115993, 79.993947)" fill="none" stroke-linejoin="miter" d="M 0.00218231 1.001224 L 53.457177 0.999647 " stroke="#000000" stroke-width="2" stroke-opacity="1" stroke-miterlimit="4"/></g><path stroke-linecap="round" transform="matrix(0.432625, -0.604979, 0.604979, 0.432625, 67.115993, 79.993947)" fill-opacity="1" fill="#000000" fill-rule="nonzero" stroke-linejoin="round" d="M 53.959246 -2.000231 L 57.959333 1.002084 L 53.960673 3.997146 Z M 53.959246 -2.000231 " stroke="#000000" stroke-width="2" stroke-opacity="1" stroke-miterlimit="4"/></svg>