<svg xmlns="http://www.w3.org/2000/svg" xmlns:xlink="http://www.w3.org/1999/xlink" width="118" zoomAndPan="magnify" viewBox="0 0 88.5 57.749998" height="77" preserveAspectRatio="xMidYMid meet" version="1.0"><defs><g/><clipPath id="9774c8543b"><path d="M 17 26.6875 L 56.339844 26.6875 L 56.339844 55.027344 L 17 55.027344 Z M 17 26.6875 " clip-rule="nonzero"/></clipPath></defs><g clip-path="url(#9774c8543b)"><path fill="#000000" d="M 46.371094 48.449219 C 44.710938 48.777344 43.210938 49.089844 41.710938 49.371094 C 39.035156 49.871094 36.34375 50.257812 33.621094 50.328125 C 32.828125 50.347656 32.023438 50.136719 31.242188 50.207031 C 29.511719 50.355469 27.832031 50.003906 26.148438 49.777344 C 24.796875 49.59375 23.441406 49.230469 22.160156 48.757812 C 19.515625 47.78125 18.007812 45.796875 17.46875 43.039062 C 16.835938 39.796875 17.351562 36.753906 18.949219 33.886719 C 20.441406 31.207031 22.503906 29.007812 24.816406 27.03125 C 24.964844 26.902344 25.144531 26.808594 25.320312 26.71875 C 25.367188 26.695312 25.449219 26.734375 25.511719 26.746094 C 26.214844 28.09375 26.035156 29.464844 25.097656 30.625 C 23.707031 32.347656 22.316406 34.078125 21.007812 35.863281 C 20.078125 37.140625 19.375 38.5625 18.878906 40.078125 C 18.601562 40.925781 18.722656 41.636719 19.265625 42.339844 C 20.027344 43.324219 20.984375 44.035156 22.089844 44.566406 C 23.621094 45.304688 25.257812 45.667969 26.9375 45.878906 C 29.691406 46.222656 32.4375 46.078125 35.1875 45.808594 C 39.339844 45.40625 43.433594 44.636719 47.484375 43.652344 C 47.734375 43.589844 47.976562 43.480469 48.433594 43.316406 C 47.921875 43.152344 47.617188 43.046875 47.3125 42.957031 C 45.761719 42.511719 44.199219 42.089844 42.65625 41.625 C 41.242188 41.199219 41.121094 41 41.25 39.550781 C 41.40625 37.707031 41.601562 37.566406 43.394531 37.953125 C 45.859375 38.488281 48.316406 39.042969 50.792969 39.527344 C 52.179688 39.796875 53.585938 39.941406 54.984375 40.148438 C 55.304688 40.195312 55.621094 40.269531 56 40.339844 C 55.988281 41.238281 56.070312 42.070312 55.941406 42.863281 C 55.734375 44.121094 55.3125 45.242188 54.09375 45.996094 C 52.761719 46.828125 51.558594 47.875 50.292969 48.820312 C 48.828125 49.914062 47.597656 51.242188 46.488281 52.679688 C 46.167969 53.097656 45.976562 53.613281 45.738281 54.089844 C 45.578125 54.398438 45.441406 54.71875 45.253906 55.132812 C 44.714844 54.566406 44.667969 54.023438 44.699219 53.453125 C 44.773438 52.015625 45.160156 50.671875 45.867188 49.421875 C 46.015625 49.136719 46.160156 48.851562 46.371094 48.449219 Z M 39.519531 49.242188 C 39.832031 49.265625 40.160156 49.351562 40.460938 49.296875 C 41.894531 49.050781 43.324219 48.765625 44.761719 48.484375 C 45.261719 48.351562 45.761719 48.214844 46.257812 48.082031 C 46.238281 48.019531 46.214844 47.953125 46.191406 47.890625 C 45.707031 48.097656 45.226562 48.304688 44.746094 48.511719 C 44.464844 48.488281 44.171875 48.402344 43.898438 48.449219 C 42.429688 48.703125 40.96875 48.988281 39.503906 49.269531 C 38.910156 49.355469 38.3125 49.441406 37.71875 49.523438 C 37.738281 49.609375 37.757812 49.691406 37.78125 49.773438 C 38.359375 49.597656 38.941406 49.417969 39.519531 49.242188 Z M 34.695312 50.023438 C 34.699219 49.976562 34.703125 49.925781 34.707031 49.875 C 34.558594 49.878906 34.414062 49.886719 34.269531 49.894531 C 34.269531 49.929688 34.269531 49.964844 34.269531 50 C 34.40625 50.007812 34.550781 50.015625 34.695312 50.023438 Z M 34.695312 50.023438 " fill-opacity="1" fill-rule="nonzero"/></g><g fill="#000000" fill-opacity="1"><g transform="translate(16.032666, 22.510401)"><g><path d="M 7.390625 0 L 4.6875 0 L 4.6875 -7.390625 L 4.71875 -8.609375 L 4.765625 -9.9375 C 4.316406 -9.488281 4.003906 -9.195312 3.828125 -9.0625 L 2.359375 -7.875 L 1.0625 -9.5 L 5.171875 -12.78125 L 7.390625 -12.78125 Z M 7.390625 0 "/></g></g></g><g fill="#000000" fill-opacity="1"><g transform="translate(61.56969, 47.253636)"><g><path d="M 9.65625 0 L 0.71875 0 L 0.71875 -1.875 L 3.921875 -5.125 C 4.867188 -6.09375 5.488281 -6.765625 5.78125 -7.140625 C 6.070312 -7.523438 6.28125 -7.875 6.40625 -8.1875 C 6.539062 -8.507812 6.609375 -8.84375 6.609375 -9.1875 C 6.609375 -9.695312 6.46875 -10.078125 6.1875 -10.328125 C 5.90625 -10.578125 5.523438 -10.703125 5.046875 -10.703125 C 4.554688 -10.703125 4.078125 -10.585938 3.609375 -10.359375 C 3.140625 -10.140625 2.65625 -9.820312 2.15625 -9.40625 L 0.6875 -11.140625 C 1.3125 -11.671875 1.832031 -12.046875 2.25 -12.265625 C 2.664062 -12.492188 3.117188 -12.664062 3.609375 -12.78125 C 4.097656 -12.90625 4.644531 -12.96875 5.25 -12.96875 C 6.039062 -12.96875 6.742188 -12.820312 7.359375 -12.53125 C 7.972656 -12.238281 8.445312 -11.828125 8.78125 -11.296875 C 9.125 -10.773438 9.296875 -10.175781 9.296875 -9.5 C 9.296875 -8.914062 9.191406 -8.363281 8.984375 -7.84375 C 8.773438 -7.332031 8.453125 -6.804688 8.015625 -6.265625 C 7.585938 -5.722656 6.828125 -4.945312 5.734375 -3.9375 L 4.078125 -2.390625 L 4.078125 -2.265625 L 9.65625 -2.265625 Z M 9.65625 0 "/></g></g></g></svg>