<svg xmlns="http://www.w3.org/2000/svg" xmlns:xlink="http://www.w3.org/1999/xlink" width="171" zoomAndPan="magnify" viewBox="0 0 128.25 72" height="96" preserveAspectRatio="xMidYMid meet" version="1.0"><defs><clipPath id="691ef589db"><path d="M 0.710938 5.496094 L 106.421875 5.496094 L 106.421875 16 L 0.710938 16 Z M 0.710938 5.496094 " clip-rule="nonzero"/></clipPath><clipPath id="6d332311fa"><path d="M 0.710938 21 L 106.421875 21 L 106.421875 71.742188 L 0.710938 71.742188 Z M 0.710938 21 " clip-rule="nonzero"/></clipPath><clipPath id="2260cfb8c6"><path d="M 91.324219 0.855469 L 127.109375 0.855469 L 127.109375 34.554688 L 91.324219 34.554688 Z M 91.324219 0.855469 " clip-rule="nonzero"/></clipPath><clipPath id="6ff224c8c4"><path d="M 119 13 L 127.238281 13 L 127.238281 22 L 119 22 Z M 119 13 " clip-rule="nonzero"/></clipPath><clipPath id="d578fb1851"><path d="M 93.410156 0.855469 L 114 0.855469 L 114 34.683594 L 93.410156 34.683594 Z M 93.410156 0.855469 " clip-rule="nonzero"/></clipPath></defs><g clip-path="url(#691ef589db)"><path fill="#000000" d="M 105.40625 5.496094 L 1.726562 5.496094 C 1.175781 5.496094 0.726562 5.941406 0.726562 6.488281 L 0.726562 14.445312 C 0.726562 14.996094 1.175781 15.441406 1.726562 15.441406 L 105.40625 15.441406 C 105.957031 15.441406 106.40625 14.996094 106.40625 14.445312 L 106.40625 6.488281 C 106.40625 5.941406 105.957031 5.496094 105.40625 5.496094 Z M 68.519531 7.484375 L 68.519531 13.449219 L 34.625 13.449219 L 34.625 7.484375 Z M 2.722656 7.484375 L 32.628906 7.484375 L 32.628906 13.449219 L 2.722656 13.449219 Z M 104.410156 13.449219 L 70.515625 13.449219 L 70.515625 7.484375 L 104.410156 7.484375 Z M 104.410156 13.449219 " fill-opacity="1" fill-rule="nonzero"/></g><g clip-path="url(#6d332311fa)"><path fill="#000000" d="M 105.40625 21.40625 L 1.726562 21.40625 C 1.175781 21.40625 0.726562 21.851562 0.726562 22.402344 L 0.726562 94.003906 C 0.726562 94.550781 1.175781 94.996094 1.726562 94.996094 L 105.40625 94.996094 C 105.957031 94.996094 106.40625 94.550781 106.40625 94.003906 L 106.40625 22.402344 C 106.40625 21.851562 105.957031 21.40625 105.40625 21.40625 Z M 34.625 69.140625 L 34.625 47.261719 L 68.519531 47.261719 L 68.519531 69.140625 Z M 68.519531 71.128906 L 68.519531 93.007812 L 34.625 93.007812 L 34.625 71.128906 Z M 2.722656 47.261719 L 32.628906 47.261719 L 32.628906 69.140625 L 2.722656 69.140625 Z M 34.625 45.273438 L 34.625 23.394531 L 68.519531 23.394531 L 68.519531 45.273438 Z M 70.515625 47.261719 L 104.410156 47.261719 L 104.410156 69.140625 L 70.515625 69.140625 Z M 104.410156 45.273438 L 70.515625 45.273438 L 70.515625 23.394531 L 104.410156 23.394531 Z M 32.628906 23.394531 L 32.628906 45.273438 L 2.722656 45.273438 L 2.722656 23.394531 Z M 2.722656 71.128906 L 32.628906 71.128906 L 32.628906 93.007812 L 2.722656 93.007812 Z M 70.515625 93.007812 L 70.515625 71.128906 L 104.410156 71.128906 L 104.410156 93.007812 Z M 70.515625 93.007812 " fill-opacity="1" fill-rule="nonzero"/></g><g clip-path="url(#2260cfb8c6)"><path fill="#ffffff" d="M 91.324219 0.855469 L 127.109375 0.855469 L 127.109375 34.554688 L 91.324219 34.554688 Z M 91.324219 0.855469 " fill-opacity="1" fill-rule="nonzero"/></g><path fill="#000000" d="M 106.46875 22.164062 C 106.195312 22.640625 105.859375 23.046875 105.386719 23.316406 C 104.910156 23.585938 104.4375 23.789062 103.828125 23.925781 C 103.21875 24.058594 102.609375 24.128906 101.933594 24.128906 C 101.257812 24.128906 100.582031 24.058594 99.972656 23.925781 C 99.363281 23.855469 98.824219 23.652344 98.417969 23.453125 L 98.417969 20.675781 C 98.890625 21.082031 99.429688 21.421875 100.039062 21.625 C 100.648438 21.828125 101.191406 21.960938 101.800781 21.960938 C 102.136719 21.960938 102.476562 21.960938 102.746094 21.894531 C 103.015625 21.828125 103.21875 21.761719 103.421875 21.625 C 103.625 21.488281 103.761719 21.355469 103.828125 21.21875 C 103.894531 21.082031 103.964844 20.878906 103.964844 20.746094 C 103.964844 20.472656 103.894531 20.269531 103.761719 20.070312 C 103.625 19.867188 103.421875 19.730469 103.21875 19.527344 C 102.949219 19.390625 102.679688 19.1875 102.339844 19.054688 C 102.003906 18.917969 101.664062 18.78125 101.257812 18.578125 C 100.3125 18.175781 99.566406 17.699219 99.09375 17.089844 C 98.621094 16.484375 98.347656 15.804688 98.347656 14.996094 C 98.347656 14.316406 98.484375 13.777344 98.753906 13.304688 C 99.023438 12.828125 99.363281 12.492188 99.835938 12.152344 C 100.3125 11.882812 100.785156 11.613281 101.394531 11.476562 C 102.003906 11.339844 102.609375 11.273438 103.289062 11.273438 C 103.964844 11.273438 104.503906 11.339844 104.980469 11.410156 C 105.453125 11.476562 105.925781 11.613281 106.332031 11.746094 L 106.332031 14.386719 C 106.128906 14.25 105.925781 14.113281 105.65625 13.980469 C 105.386719 13.84375 105.183594 13.777344 104.910156 13.707031 C 104.640625 13.640625 104.371094 13.574219 104.167969 13.574219 C 103.894531 13.507812 103.695312 13.507812 103.421875 13.507812 C 103.085938 13.507812 102.8125 13.507812 102.542969 13.574219 C 102.273438 13.640625 102.070312 13.707031 101.867188 13.84375 C 101.664062 13.980469 101.527344 14.113281 101.460938 14.25 C 101.394531 14.386719 101.324219 14.589844 101.324219 14.792969 C 101.324219 14.996094 101.394531 15.199219 101.460938 15.332031 C 101.597656 15.46875 101.730469 15.671875 101.933594 15.804688 C 102.136719 15.941406 102.40625 16.078125 102.679688 16.210938 C 102.949219 16.347656 103.289062 16.484375 103.625 16.617188 C 104.097656 16.820312 104.574219 17.023438 104.980469 17.292969 C 105.386719 17.496094 105.722656 17.769531 105.992188 18.105469 C 106.265625 18.378906 106.46875 18.714844 106.671875 19.121094 C 106.804688 19.527344 106.875 19.933594 106.875 20.40625 C 106.804688 21.152344 106.671875 21.691406 106.46875 22.164062 Z M 106.46875 22.164062 " fill-opacity="1" fill-rule="nonzero"/><g clip-path="url(#6ff224c8c4)"><path stroke-linecap="round" transform="matrix(0.676548, 0, 0, 0.676548, 93.40993, 0.854499)" fill="none" stroke-linejoin="round" d="M 49.002544 25.001972 C 49.002544 25.660185 48.875521 26.301076 48.621474 26.913099 C 48.367426 27.525121 48.003677 28.067858 47.536 28.535535 C 47.068322 29.003213 46.525585 29.366962 45.913563 29.621009 C 45.301541 29.875056 44.660649 30.00208 44.002436 30.00208 C 43.33845 30.00208 42.697558 29.875056 42.085536 29.621009 C 41.473514 29.366962 40.930777 29.003213 40.463099 28.535535 C 39.995422 28.067858 39.631672 27.525121 39.383399 26.913099 C 39.129352 26.301076 39.002329 25.660185 39.002329 25.001972 C 39.002329 24.337985 39.129352 23.697094 39.383399 23.085071 C 39.631672 22.473049 39.995422 21.936086 40.463099 21.462635 C 40.930777 20.994957 41.473514 20.636982 42.085536 20.382935 C 42.697558 20.128888 43.33845 20.001864 44.002436 20.001864 C 44.660649 20.001864 45.301541 20.128888 45.913563 20.382935 C 46.525585 20.636982 47.068322 20.994957 47.536 21.462635 C 48.003677 21.936086 48.367426 22.473049 48.621474 23.085071 C 48.875521 23.697094 49.002544 24.337985 49.002544 25.001972 Z M 49.002544 25.001972 " stroke="#000000" stroke-width="2" stroke-opacity="1" stroke-miterlimit="10"/></g><path stroke-linecap="round" transform="matrix(0.676548, 0, 0, 0.676548, 93.40993, 0.854499)" fill="none" stroke-linejoin="round" d="M 42.801487 20.001864 C 41.398454 17.299727 39.002329 15.301994 36.098109 14.401282 " stroke="#000000" stroke-width="2" stroke-opacity="1" stroke-miterlimit="10"/><path stroke-linecap="round" transform="matrix(0.676548, 0, 0, 0.676548, 93.40993, 0.854499)" fill="none" stroke-linejoin="round" d="M 36.098109 35.498734 C 39.002329 34.598022 41.398454 32.600288 42.801487 29.898151 " stroke="#000000" stroke-width="2" stroke-opacity="1" stroke-miterlimit="10"/><path stroke-linecap="round" transform="matrix(0.676548, 0, 0, 0.676548, 93.40993, 0.854499)" fill="none" stroke-linejoin="round" d="M 29.100268 18.598832 C 29.700743 18.899069 30.399372 18.997224 30.999847 18.997224 C 33.800138 18.997224 35.999955 16.797407 35.999955 13.997116 C 35.999955 11.202598 33.800138 9.002782 30.999847 9.002782 C 30.301217 9.002782 29.700743 9.100937 29.100268 9.401174 " stroke="#000000" stroke-width="2" stroke-opacity="1" stroke-miterlimit="10"/><path stroke-linecap="round" transform="matrix(0.676548, 0, 0, 0.676548, 93.40993, 0.854499)" fill="none" stroke-linejoin="round" d="M 29.100268 40.60277 C 29.700743 40.897233 30.399372 41.001162 30.999847 41.001162 C 33.800138 41.001162 35.999955 38.801345 35.999955 36.001054 C 35.999955 33.200763 33.800138 31.000946 30.999847 31.000946 C 30.301217 31.000946 29.700743 31.099101 29.100268 31.399338 " stroke="#000000" stroke-width="2" stroke-opacity="1" stroke-miterlimit="10"/><g clip-path="url(#d578fb1851)"><path stroke-linecap="round" transform="matrix(0.676548, 0, 0, 0.676548, 93.40993, 0.854499)" fill="none" stroke-linejoin="round" d="M 0.999201 6.300645 L 0.999201 43.59937 L 29.002113 48.99787 L 29.002113 1.0003 Z M 0.999201 6.300645 " stroke="#000000" stroke-width="2" stroke-opacity="1" stroke-miterlimit="10"/></g></svg>